<?xml version="1.0" standalone="no"?>
<!DOCTYPE svg PUBLIC "-//W3C//DTD SVG 20010904//EN"
 "http://www.w3.org/TR/2001/REC-SVG-20010904/DTD/svg10.dtd">
<svg version="1.0" xmlns="http://www.w3.org/2000/svg"
 width="234.000000pt" height="216.000000pt" viewBox="0 0 234.000000 216.000000"
 preserveAspectRatio="xMidYMid meet">

<g transform="translate(0.000000,216.000000) scale(0.100000,-0.100000)"
fill="#000000" stroke="none">
<path d="M1125 2135 c-14 -13 -25 -31 -25 -40 0 -23 45 -65 70 -65 28 0 60 35
60 65 0 30 -32 65 -60 65 -12 0 -32 -11 -45 -25z"/>
<path d="M577 2082 c-46 -51 19 -115 67 -66 21 21 20 40 -4 64 -25 25 -42 25
-63 2z"/>
<path d="M1698 2089 c-21 -12 -24 -59 -6 -77 20 -20 56 -14 74 13 15 23 15 27
0 50 -17 26 -40 31 -68 14z"/>
<path d="M705 1845 c-49 -48 -16 -125 53 -125 69 0 99 87 46 129 -35 28 -69
26 -99 -4z"/>
<path d="M1529 1851 c-17 -13 -23 -29 -23 -56 0 -45 31 -75 76 -75 36 0 78 40
78 75 0 61 -82 96 -131 56z"/>
<path d="M1134 1800 c-47 -19 -68 -85 -43 -132 6 -11 26 -26 44 -34 68 -28
134 28 120 102 -9 50 -73 84 -121 64z"/>
<path d="M252 1634 c-46 -32 -17 -114 40 -114 28 0 58 37 58 69 0 31 -30 61
-60 61 -9 0 -26 -7 -38 -16z"/>
<path d="M2006 1634 c-25 -25 -24 -72 2 -91 40 -32 102 -2 102 49 0 49 -69 78
-104 42z"/>
<path d="M936 1550 c-61 -19 -106 -83 -106 -153 0 -145 196 -204 282 -85 18
25 23 46 23 90 0 69 -22 103 -85 136 -47 23 -67 26 -114 12z"/>
<path d="M1300 1549 c-117 -49 -134 -207 -31 -276 47 -32 125 -32 171 0 120
81 72 271 -71 283 -24 2 -55 -1 -69 -7z"/>
<path d="M584 1480 c-56 -23 -72 -103 -29 -145 24 -25 73 -33 110 -19 20 8 45
56 45 88 0 54 -74 99 -126 76z"/>
<path d="M1659 1461 c-37 -37 -38 -79 -3 -120 55 -66 154 -24 154 64 0 38 -50
85 -90 85 -22 0 -41 -9 -61 -29z"/>
<path d="M1499 1230 c-78 -23 -114 -79 -107 -165 4 -53 9 -62 46 -97 38 -35
46 -38 98 -38 72 0 115 25 143 84 27 54 26 81 -1 136 -17 33 -35 51 -68 68
-46 23 -68 26 -111 12z"/>
<path d="M708 1206 c-44 -31 -73 -99 -64 -148 22 -116 141 -169 242 -107 48
29 68 75 62 143 -4 50 -10 62 -41 94 -33 32 -43 36 -99 40 -55 3 -68 0 -100
-22z"/>
<path d="M313 1145 c-51 -22 -61 -90 -17 -124 35 -28 69 -26 99 4 62 61 -1
154 -82 120z"/>
<path d="M1945 1135 c-43 -42 -29 -105 26 -124 78 -27 134 65 74 124 -13 14
-36 25 -50 25 -14 0 -37 -11 -50 -25z"/>
<path d="M20 1110 c-24 -24 -25 -43 -4 -64 18 -19 55 -21 72 -4 18 18 15 53
-6 71 -24 22 -38 21 -62 -3z"/>
<path d="M2252 1118 c-26 -26 0 -88 36 -88 17 0 52 37 52 54 0 37 -61 61 -88
34z"/>
<path d="M1305 905 c-137 -47 -139 -235 -3 -289 102 -41 208 34 208 147 0 102
-106 175 -205 142z"/>
<path d="M900 888 c-93 -64 -91 -191 3 -262 38 -28 125 -28 164 0 95 70 97
199 4 261 -47 32 -125 32 -171 1z"/>
<path d="M569 837 c-23 -17 -39 -52 -39 -82 0 -38 50 -85 90 -85 42 0 90 47
90 88 0 47 -43 92 -88 92 -21 0 -44 -6 -53 -13z"/>
<path d="M1672 843 c-18 -7 -42 -57 -42 -87 0 -14 11 -37 24 -53 19 -22 32
-28 66 -28 34 0 47 6 66 28 52 61 15 148 -63 146 -21 0 -44 -3 -51 -6z"/>
<path d="M2009 619 c-29 -29 -23 -79 14 -99 24 -13 30 -13 55 0 37 21 44 81
10 104 -30 22 -54 20 -79 -5z"/>
<path d="M247 612 c-37 -40 -9 -102 46 -102 14 0 33 7 41 16 20 20 20 68 0 88
-21 22 -67 20 -87 -2z"/>
<path d="M1135 531 c-62 -26 -79 -102 -32 -148 56 -57 151 -17 151 62 0 59
-67 108 -119 86z"/>
<path d="M705 415 c-14 -13 -25 -36 -25 -50 0 -35 42 -75 78 -75 45 0 76 30
76 75 0 70 -79 101 -129 50z"/>
<path d="M1530 420 c-30 -30 -27 -83 6 -109 35 -28 69 -26 99 4 50 49 20 125
-50 125 -22 0 -43 -8 -55 -20z"/>
<path d="M574 135 c-15 -23 -15 -27 0 -50 27 -42 86 -26 86 23 0 55 -56 72
-86 27z"/>
<path d="M1690 140 c-14 -26 -5 -57 21 -71 43 -23 92 44 57 79 -20 20 -66 15
-78 -8z"/>
<path d="M1125 105 c-14 -13 -25 -31 -25 -40 0 -23 45 -65 70 -65 41 0 75 62
52 96 -9 13 -46 34 -62 34 -6 0 -22 -11 -35 -25z"/>
</g>
</svg>
